name C:\Users\u0101727\Documents\MyRepositories\upper-imu-dc\Results\main_tracking\Case_10\FLX01_angularVelocities_groundFrame.mot
datacolumns 4
datarows 70
range 5.01000000 5.70000000
endheader 
time	radius_imu_x	radius_imu_y	radius_imu_z	
          5.01000000	          0.69903062	         -0.00413589	         -1.23607152	
          5.02000000	          0.59287999	          0.04435234	         -1.25634870	
          5.03000000	          0.45709741	          0.10501310	         -1.28823016	
          5.04000000	          0.30482145	          0.17485020	         -1.32656031	
          5.05000000	          0.16322105	          0.24588866	         -1.36101267	
          5.06000000	          0.06275243	          0.30774662	         -1.38011841	
          5.07000000	          0.02482798	          0.35163557	         -1.37594454	
          5.08000000	          0.05410394	          0.37371571	         -1.34705862	
          5.09000000	          0.13871162	          0.37610605	         -1.29845116	
          5.10000000	          0.25705604	          0.36531641	         -1.23889442	
          5.11000000	          0.38633443	          0.34944776	         -1.17760058	
          5.12000000	          0.50786099	          0.33608201	         -1.12211266	
          5.13000000	          0.60762011	          0.33186279	         -1.07808522	
          5.14000000	          0.67517186	          0.34280925	         -1.04976377	
          5.15000000	          0.70537175	          0.37341095	         -1.03940031	
          5.16000000	          0.70313596	          0.42404437	         -1.04545092	
          5.17000000	          0.68621968	          0.48880521	         -1.06145822	
          5.18000000	          0.68088690	          0.55651385	         -1.07759445	
          5.19000000	          0.71108314	          0.61536125	         -1.08464759	
          5.20000000	          0.78714410	          0.65879528	         -1.07816639	
          5.21000000	          0.89990228	          0.68964687	         -1.06059375	
          5.22000000	          1.02221572	          0.72086835	         -1.04071115	
          5.23000000	          1.11688094	          0.77264177	         -1.03082876	
          5.24000000	          1.14853325	          0.86642742	         -1.04256729	
          5.25000000	          1.09591264	          1.01751600	         -1.08247576	
          5.26000000	          0.95969554	          1.22889902	         -1.14920005	
          5.27000000	          0.76222255	          1.48932283	         -1.23357093	
          5.28000000	          0.53968112	          1.77624806	         -1.32145255	
          5.29000000	          0.33081916	          2.06205545	         -1.39789036	
          5.30000000	          0.16673262	          2.32092794	         -1.45093093	
          5.31000000	          0.06495343	          2.53401817	         -1.47395566	
          5.32000000	          0.02879353	          2.69155869	         -1.46613380	
          5.33000000	          0.05059063	          2.79208024	         -1.43136056	
          5.34000000	          0.11644423	          2.83994022	         -1.37642129	
          5.35000000	          0.21039302	          2.84255294	         -1.30912350	
          5.36000000	          0.31707990	          2.80825869	         -1.23691069	
          5.37000000	          0.42306451	          2.74502497	         -1.16608801	
          5.38000000	          0.51739658	          2.65971361	         -1.10150672	
          5.39000000	          0.59193959	          2.55760179	         -1.04648756	
          5.40000000	          0.64177794	          2.44187433	         -1.00277465	
          5.41000000	          0.66581279	          2.31295136	         -0.97041564	
          5.42000000	          0.66722831	          2.16790695	         -0.94766053	
          5.43000000	          0.65317167	          2.00061951	         -0.93117885	
          5.44000000	          0.63339786	          1.80297203	         -0.91672336	
          5.45000000	          0.61797994	          1.56711604	         -0.90028705	
          5.46000000	          0.61534116	          1.28766491	         -0.87917282	
          5.47000000	          0.63031113	          0.96426135	         -0.85363818	
          5.48000000	          0.66510570	          0.59914409	         -0.82252491	
          5.49000000	          0.71275589	          0.20075044	         -0.79359563	
          5.50000000	          0.77742807	         -0.21963263	         -0.77310869	
          5.51000000	          0.85598088	         -0.65553038	         -0.75371418	
          5.52000000	          0.93957610	         -1.10393872	         -0.73139222	
          5.53000000	          1.02129185	         -1.54070948	         -0.71970189	
          5.54000000	          1.07991879	         -1.94878810	         -0.73324684	
          5.55000000	          1.12903318	         -2.33244896	         -0.74417376	
          5.56000000	          1.16992670	         -2.68206314	         -0.75272551	
          5.57000000	          1.19618409	         -2.98325223	         -0.76355720	
          5.58000000	          1.20537482	         -3.23115806	         -0.77589584	
          5.59000000	          1.19705821	         -3.42557947	         -0.78836440	
          5.60000000	          1.17307641	         -3.57025938	         -0.79955030	
          5.61000000	          1.13697809	         -3.67179504	         -0.80830336	
          5.62000000	          1.09333087	         -3.73873122	         -0.81367349	
          5.63000000	          1.04679592	         -3.78026942	         -0.81498923	
          5.64000000	          1.00119666	         -3.80464812	         -0.81208892	
          5.65000000	          0.95870594	         -3.81731741	         -0.80567997	
          5.66000000	          0.91931272	         -3.81928511	         -0.79769303	
          5.67000000	          0.88072171	         -3.80612553	         -0.79144833	
          5.68000000	          0.83880190	         -3.76816053	         -0.79141672	
          5.69000000	          0.78884398	         -3.69262017	         -0.80219497	
          5.70000000	          0.72793397	         -3.56932620	         -0.82588697	
